<svg width="22" height="22" viewBox="0 0 22 22" fill="none" xmlns="http://www.w3.org/2000/svg">
<path d="M14.2604 10.9106C14.2604 12.6039 12.8921 13.9722 11.1988 13.9722C9.50552 13.9722 8.13721 12.6039 8.13721 10.9106C8.13721 9.21731 9.50552 7.849 11.1988 7.849C12.8921 7.849 14.2604 9.21731 14.2604 10.9106Z" stroke="#04009A" stroke-width="0.749605" stroke-linecap="round" stroke-linejoin="round"/>
<path d="M11.1986 17.9831C14.2175 17.9831 17.0311 16.2042 18.9895 13.1256C19.7591 11.9197 19.7591 9.89292 18.9895 8.68709C17.0311 5.60839 14.2175 3.82959 11.1986 3.82959C8.17981 3.82959 5.36622 5.60839 3.40782 8.68709C2.63815 9.89292 2.63815 11.9197 3.40782 13.1256C5.36622 16.2042 8.17981 17.9831 11.1986 17.9831Z" stroke="#04009A" stroke-width="0.749605" stroke-linecap="round" stroke-linejoin="round"/>
</svg>
