<svg width="31" height="30" viewBox="0 0 31 30" fill="none" xmlns="http://www.w3.org/2000/svg">
<g clip-path="url(#clip0_4_475)">
<path fill-rule="evenodd" clip-rule="evenodd" d="M13.0575 11.6206H16.5858V13.378C17.0941 12.3672 18.3975 11.4591 20.3554 11.4591C24.1089 11.4591 25 13.4712 25 17.1629V24H21.2V18.0036C21.2 15.9012 20.6918 14.7157 19.3979 14.7157C17.6033 14.7157 16.8575 15.9934 16.8575 18.0027V24H13.0575V11.6206ZM6.5415 23.8385H10.3415V11.4591H6.5415V23.8385ZM10.8858 7.4225C10.886 7.74101 10.8228 8.05637 10.7 8.35026C10.5772 8.64414 10.3972 8.91069 10.1705 9.1344C9.71108 9.59099 9.08922 9.84657 8.4415 9.845C7.79492 9.84457 7.1745 9.58964 6.7144 9.13535C6.4885 8.91088 6.30912 8.64403 6.18653 8.35011C6.06394 8.05619 6.00055 7.74096 6 7.4225C6 6.77935 6.2565 6.16375 6.71535 5.70965C7.17504 5.25475 7.79573 4.99972 8.44245 5C9.09035 5 9.71165 5.25555 10.1705 5.70965C10.6284 6.16375 10.8858 6.77935 10.8858 7.4225Z" fill="white"/>
</g>
<rect x="0.821777" y="0.5" width="28.8777" height="29" stroke="white"/>
<defs>
<clipPath id="clip0_4_475">
<rect x="0.321777" width="29.8777" height="30" fill="white"/>
</clipPath>
</defs>
</svg>
