<svg width="25" height="25" viewBox="0 0 25 25" fill="none" xmlns="http://www.w3.org/2000/svg">
<path d="M19.9609 22.0526C20.3588 22.0526 20.7403 21.8946 21.0216 21.6133C21.3029 21.332 21.4609 20.9504 21.4609 20.5526V17.0526C21.4609 16.6548 21.3029 16.2732 21.0216 15.9919C20.7403 15.7106 20.3588 15.5526 19.9609 15.5526C18.7909 15.5526 17.6409 15.3726 16.5409 15.0026C16.2779 14.9196 15.9972 14.9102 15.7293 14.9754C15.4613 15.0406 15.2164 15.178 15.0209 15.3726L13.5809 16.8126C11.0932 15.455 9.04852 13.4104 7.69094 10.9226L9.12094 9.4926C9.53094 9.1026 9.68094 8.5226 9.50094 7.9626C9.14094 6.8726 8.96094 5.7226 8.96094 4.5526C8.96094 4.15477 8.8029 3.77324 8.5216 3.49194C8.24029 3.21063 7.85876 3.0526 7.46094 3.0526H3.96094C3.56311 3.0526 3.18158 3.21063 2.90028 3.49194C2.61897 3.77324 2.46094 4.15477 2.46094 4.5526C2.46094 14.2026 10.3109 22.0526 19.9609 22.0526ZM3.96094 4.0526H7.46094C7.59355 4.0526 7.72072 4.10528 7.81449 4.19904C7.90826 4.29281 7.96094 4.41999 7.96094 4.5526C7.96094 5.8326 8.16094 7.0826 8.55094 8.2726C8.60094 8.4126 8.59094 8.6126 8.43094 8.7726L6.46094 10.7326C8.11094 13.9626 10.5309 16.3826 13.7709 18.0526L15.7209 16.0826C15.8609 15.9426 16.0509 15.9026 16.2309 15.9526C17.4309 16.3526 18.6809 16.5526 19.9609 16.5526C20.0935 16.5526 20.2207 16.6053 20.3145 16.699C20.4083 16.7928 20.4609 16.92 20.4609 17.0526V20.5526C20.4609 20.6852 20.4083 20.8124 20.3145 20.9062C20.2207 20.9999 20.0935 21.0526 19.9609 21.0526C10.8609 21.0526 3.46094 13.6526 3.46094 4.5526C3.46094 4.41999 3.51362 4.29281 3.60738 4.19904C3.70115 4.10528 3.82833 4.0526 3.96094 4.0526Z" fill="#043B64"/>
</svg>
