<svg width="22" height="22" viewBox="0 0 22 22" fill="none" xmlns="http://www.w3.org/2000/svg">
<path d="M11.1771 10.1146C11.0915 10.1061 10.9889 10.1061 10.8948 10.1146C8.85948 10.0462 7.24316 8.37858 7.24316 6.32612C7.24316 4.23089 8.93645 2.52906 11.0402 2.52906C13.1355 2.52906 14.8373 4.23089 14.8373 6.32612C14.8287 8.37858 13.2124 10.0462 11.1771 10.1146Z" stroke="#04009A" stroke-width="0.749605" stroke-linecap="round" stroke-linejoin="round"/>
<path d="M6.90081 13.2703C4.83124 14.6557 4.83124 16.9134 6.90081 18.2903C9.25259 19.8638 13.1095 19.8638 15.4613 18.2903C17.5309 16.9049 17.5309 14.6472 15.4613 13.2703C13.1181 11.7053 9.26115 11.7053 6.90081 13.2703Z" stroke="#04009A" stroke-width="0.749605" stroke-linecap="round" stroke-linejoin="round"/>
</svg>
