<svg width="25" height="25" viewBox="0 0 25 25" fill="none" xmlns="http://www.w3.org/2000/svg">
<path d="M19.3686 5.0749L19.3693 5.07558C21.2017 6.90798 22.2107 9.34708 22.2107 11.9442C22.2107 17.2937 17.8503 21.6542 12.5007 21.6542C10.8745 21.6542 9.27733 21.2427 7.85643 20.4685L7.7867 20.4305L7.7099 20.4507L2.79468 21.7427L4.10371 16.9367L4.12552 16.8567L4.08425 16.7847C3.24144 15.3147 2.79074 13.6489 2.79074 11.9342C2.79074 6.58462 7.1512 2.22416 12.5007 2.22416L12.5014 2.22416C13.7779 2.21993 15.0426 2.46981 16.2216 2.95924C17.4006 3.44867 18.4704 4.16786 19.3686 5.0749ZM8.19784 19.1957L8.19904 19.1964C9.4996 19.9644 10.9847 20.3742 12.5007 20.3742C17.1504 20.3742 20.9408 16.5954 20.9207 11.9441C20.9249 10.835 20.7089 9.73609 20.2852 8.71109C19.8615 7.68601 19.2384 6.75526 18.4522 5.9728C16.8647 4.3752 14.7437 3.49416 12.4907 3.49416C7.84028 3.49416 4.05074 7.28371 4.05074 11.9342L4.05074 11.9343C4.05169 13.5211 4.49888 15.0756 5.34125 16.4203L5.34124 16.4203L5.34268 16.4226L5.4943 16.6576L4.6878 19.6115L4.59657 19.9456L4.93158 19.8576L7.97009 19.059L8.19784 19.1957ZM9.90624 11.5019L9.90616 11.5019L9.90924 11.5071C10.0606 11.7594 10.5635 12.5919 11.3276 13.2734C12.1581 14.0155 12.8905 14.3296 13.2301 14.4753C13.2843 14.4985 13.3285 14.5175 13.3615 14.5332C13.4989 14.6042 13.641 14.652 13.785 14.6353C13.9383 14.6176 14.0531 14.5322 14.1431 14.4237C14.2847 14.2618 14.7571 13.6993 14.9349 13.4384C14.9976 13.3505 15.034 13.3448 15.0503 13.3429C15.0877 13.3388 15.1416 13.3504 15.2598 13.3912C15.4282 13.4612 16.1362 13.8061 16.5906 14.0275C16.7444 14.1025 16.8692 14.1633 16.9342 14.1945C16.9919 14.2222 17.0401 14.2443 17.082 14.2636C17.1402 14.2904 17.1864 14.3116 17.2293 14.3345C17.2875 14.3655 17.3089 14.3846 17.3182 14.3962C17.3191 14.4004 17.3248 14.4196 17.3288 14.4619C17.334 14.518 17.3345 14.5955 17.3264 14.6912C17.3104 14.8821 17.2618 15.1323 17.1627 15.4061L17.1627 15.4061L17.1617 15.409C17.0845 15.6328 16.8359 15.8794 16.5126 16.0872C16.1946 16.2916 15.8547 16.4265 15.6525 16.4562C15.2364 16.5142 14.7309 16.5405 14.182 16.3638L14.1821 16.3638L14.1792 16.3629C13.8234 16.2542 13.3716 16.1068 12.7914 15.8511L12.79 15.8505C10.4768 14.8525 8.91263 12.5703 8.66935 12.2154C8.6581 12.199 8.64968 12.1867 8.64414 12.1788L8.6442 12.1788L8.64074 12.1742L8.63883 12.1716C8.57769 12.0901 8.33619 11.7682 8.10905 11.3211C7.87803 10.8663 7.67074 10.2991 7.67074 9.73416C7.67074 8.68698 8.16968 8.13885 8.42187 7.86179C8.44287 7.83871 8.46216 7.81752 8.47931 7.79807C8.66514 7.59696 8.86759 7.55416 8.99074 7.55416H9.4643C9.50372 7.55662 9.53162 7.55689 9.55319 7.55709C9.59502 7.55749 9.61308 7.55766 9.64537 7.57318C9.67915 7.58941 9.75517 7.64328 9.8456 7.85983C10.0437 8.35514 10.5471 9.5841 10.6119 9.71361C10.6576 9.80513 10.6729 9.87597 10.6307 9.96709C10.6246 9.97932 10.6187 9.99113 10.613 10.0025C10.543 10.1431 10.502 10.2254 10.4089 10.334C10.3645 10.3858 10.3208 10.4386 10.2785 10.4899C10.1955 10.5902 10.1176 10.6845 10.0493 10.7527L10.0458 10.7562C9.98533 10.8167 9.89161 10.9104 9.84628 11.0365C9.79359 11.1831 9.8149 11.3388 9.90624 11.5019Z" fill="#043B64" stroke="white" stroke-width="0.4"/>
</svg>
