<svg width="32" height="30" viewBox="0 0 32 30" fill="none" xmlns="http://www.w3.org/2000/svg">
<g clip-path="url(#clip0_4_470)">
<path d="M24.9356 10.9031C24.9244 10.0633 24.7669 9.23193 24.4702 8.44606C24.213 7.78318 23.82 7.18117 23.3165 6.67849C22.813 6.17581 22.21 5.78351 21.546 5.52667C20.7689 5.23546 19.948 5.07799 19.1182 5.06098C18.0498 5.01331 17.711 5 14.9989 5C12.2868 5 11.9391 5 10.8785 5.06098C10.049 5.07812 9.22851 5.23558 8.4518 5.52667C7.78771 5.78333 7.18461 6.17557 6.68107 6.67827C6.17753 7.18097 5.78464 7.78308 5.52754 8.44606C5.23526 9.22124 5.07788 10.0406 5.06219 10.8687C5.01444 11.9365 5 12.2746 5 14.9823C5 17.6899 5 18.0358 5.06219 19.0958C5.07885 19.9252 5.23545 20.7434 5.52754 21.5207C5.78507 22.1835 6.17825 22.7853 6.68196 23.2878C7.18567 23.7903 7.78883 24.1824 8.45291 24.439C9.22749 24.7419 10.0482 24.9106 10.8796 24.9379C11.9491 24.9856 12.2879 25 15 25C17.7121 25 18.0598 25 19.1204 24.9379C19.9502 24.9216 20.7712 24.7645 21.5482 24.4733C22.212 24.2162 22.8149 23.8238 23.3183 23.3211C23.8218 22.8185 24.2149 22.2166 24.4725 21.5539C24.7646 20.7778 24.9211 19.9595 24.9378 19.1291C24.9856 18.0624 25 17.7243 25 15.0155C24.9978 12.3079 24.9978 11.9642 24.9356 10.9031ZM14.9922 20.1026C12.1557 20.1026 9.85784 17.8085 9.85784 14.9767C9.85784 12.1449 12.1557 9.85087 14.9922 9.85087C16.3539 9.85087 17.6599 10.3909 18.6228 11.3522C19.5857 12.3135 20.1266 13.6173 20.1266 14.9767C20.1266 16.3362 19.5857 17.64 18.6228 18.6012C17.6599 19.5625 16.3539 20.1026 14.9922 20.1026ZM20.331 10.8565C20.1737 10.8567 20.0179 10.8259 19.8726 10.7658C19.7273 10.7058 19.5953 10.6178 19.4841 10.5068C19.3729 10.3958 19.2847 10.2639 19.2246 10.1188C19.1644 9.97377 19.1336 9.81827 19.1337 9.66127C19.1337 9.50438 19.1647 9.34903 19.2248 9.20408C19.285 9.05913 19.3731 8.92743 19.4842 8.81649C19.5953 8.70555 19.7273 8.61755 19.8725 8.55751C20.0176 8.49747 20.1733 8.46657 20.3304 8.46657C20.4876 8.46657 20.6432 8.49747 20.7884 8.55751C20.9336 8.61755 21.0655 8.70555 21.1766 8.81649C21.2877 8.92743 21.3759 9.05913 21.436 9.20408C21.4961 9.34903 21.5271 9.50438 21.5271 9.66127C21.5271 10.3221 20.9918 10.8565 20.331 10.8565Z" fill="white"/>
<path d="M15 18C16.6569 18 18 16.6569 18 15C18 13.3431 16.6569 12 15 12C13.3431 12 12 13.3431 12 15C12 16.6569 13.3431 18 15 18Z" fill="white"/>
</g>
<rect x="0.806641" y="0.5" width="29.8333" height="29" stroke="white"/>
<defs>
<clipPath id="clip0_4_470">
<rect x="0.306641" width="30.8333" height="30" fill="white"/>
</clipPath>
</defs>
</svg>
