<svg width="32" height="30" viewBox="0 0 32 30" fill="none" xmlns="http://www.w3.org/2000/svg">
<g clip-path="url(#clip0_4_479)">
<path d="M23.4007 15.92C23.4878 15.4407 23.5346 14.9506 23.5346 14.4606C23.5346 13.374 23.322 12.3193 22.9033 11.3286C22.4995 10.3698 21.9194 9.50909 21.1819 8.76977C20.4506 8.03476 19.5837 7.44935 18.6294 7.04612C17.6391 6.62639 16.5892 6.41333 15.5053 6.41333C14.9952 6.41333 14.4831 6.46234 13.9858 6.55822C13.2976 6.19265 12.5309 6.00104 11.7521 6C10.4833 6 9.28892 6.49643 8.39206 7.39554C7.9495 7.83693 7.59861 8.36189 7.35967 8.94007C7.12074 9.51825 6.99849 10.1382 7.00001 10.764C7.00001 11.5736 7.20829 12.3705 7.59721 13.0736C7.51858 13.5295 7.47607 13.9961 7.47607 14.4606C7.47607 15.5472 7.6886 16.6018 8.10728 17.5926C8.51108 18.5513 9.08915 19.4121 9.82661 20.1514C10.5641 20.8907 11.4227 21.4702 12.3791 21.875C13.3694 22.2948 14.4193 22.5078 15.5032 22.5078C15.975 22.5078 16.4468 22.4652 16.9101 22.3821C17.6221 22.7848 18.4254 23 19.2479 23C20.5167 23 21.7111 22.5057 22.6079 21.6045C23.5069 20.7054 24 19.508 24 18.236C24.0021 17.4264 23.7938 16.6274 23.4007 15.92ZM15.5372 19.3908C12.6851 19.3908 11.4099 17.9846 11.4099 16.9321C11.4099 16.3909 11.8074 16.0138 12.3557 16.0138C13.5756 16.0138 13.261 17.7715 15.5372 17.7715C16.704 17.7715 17.3479 17.1366 17.3479 16.4868C17.3479 16.0969 17.1566 15.6622 16.3873 15.4726L13.8497 14.8377C11.8074 14.3242 11.4354 13.2163 11.4354 12.1766C11.4354 10.0162 13.4651 9.20441 15.3714 9.20441C17.1269 9.20441 19.1969 10.1781 19.1969 11.4735C19.1969 12.0296 18.7166 12.3513 18.1683 12.3513C17.1269 12.3513 17.3182 10.9068 15.2205 10.9068C14.1791 10.9068 13.6032 11.3797 13.6032 12.0551C13.6032 12.7305 14.4257 12.9457 15.1398 13.1098L17.0185 13.5274C19.0758 13.9876 19.5964 15.1914 19.5964 16.3249C19.5964 18.0783 18.2512 19.3908 15.5372 19.3908Z" fill="white"/>
</g>
<rect x="0.881348" y="0.5" width="30.3265" height="29" stroke="white"/>
<defs>
<clipPath id="clip0_4_479">
<rect x="0.381348" width="31.3265" height="30" fill="white"/>
</clipPath>
</defs>
</svg>
